<svg xmlns="http://www.w3.org/2000/svg" width="8.1" height="17.435" viewBox="0 0 8.1 17.435">
  <path id="facebook" d="M10.785,17.215a.219.219,0,0,0,.22.22h3.13a.219.219,0,0,0,.22-.22V8.649h2.269a.22.22,0,0,0,.219-.2l.218-2.58a.22.22,0,0,0-.218-.238H14.354V3.8a.777.777,0,0,1,.777-.777H16.88a.219.219,0,0,0,.22-.22V.22A.22.22,0,0,0,16.88,0H13.925a3.14,3.14,0,0,0-3.14,3.14V5.629H9.22A.22.22,0,0,0,9,5.848V8.429a.219.219,0,0,0,.22.22h1.565Z" transform="translate(-9)" fill="#1c9cc1" fill-rule="evenodd"/>
</svg>
