<svg xmlns="http://www.w3.org/2000/svg" width="17.469" height="17.469" viewBox="0 0 17.469 17.469">
  <path id="instagram" d="M15.82,12.207a3.614,3.614,0,0,1-3.614,3.614H5.262a3.614,3.614,0,0,1-3.614-3.614V5.261A3.614,3.614,0,0,1,5.262,1.647h6.945A3.614,3.614,0,0,1,15.82,5.261v6.945Zm1.648-6.945A5.262,5.262,0,0,0,12.206,0H5.262A5.261,5.261,0,0,0,0,5.261v6.945a5.262,5.262,0,0,0,5.262,5.262h6.944a5.262,5.262,0,0,0,5.262-5.262Zm-8.7,6.349a2.763,2.763,0,1,1,2.763-2.763A2.767,2.767,0,0,1,8.764,11.61Zm0-7.077a4.314,4.314,0,1,0,4.314,4.314A4.319,4.319,0,0,0,8.764,4.533ZM13.33,3.216a1.027,1.027,0,1,0,1.027,1.027A1.027,1.027,0,0,0,13.33,3.216Z" fill="#1c9cc1"/>
</svg>
